<?xml version="1.0" encoding="utf-8"?>
<!-- Generator: Adobe Illustrator 26.3.1, SVG Export Plug-In . SVG Version: 6.00 Build 0)  -->
<svg version="1.1" id="Layer_1" xmlns="http://www.w3.org/2000/svg" xmlns:xlink="http://www.w3.org/1999/xlink" x="0px" y="0px"
	 viewBox="0 0 124.3 28" style="enable-background:new 0 0 124.3 28;" xml:space="preserve">
<style type="text/css">
	.st0{fill:#F1F2F2;}
</style>
<g>
	<g>
		<path class="st0" d="M0,9.6V8h2.1v1l0.5,0.5h3.3L6.4,9V7L6,6.5H1.7L0,4.7v-3L1.7,0h5l1.7,1.8v1.6H6.3v-1L5.8,1.9H2.7L2.2,2.4v1.7
			l0.5,0.5h4.2l1.7,1.8v3.2l-1.7,1.8H1.7L0,9.6L0,9.6z"/>
		<path class="st0" d="M13,6.7L9.1,0h2.4l2.6,4.6l0,0L16.8,0h2.4l-3.9,6.7v4.6H13V6.7L13,6.7z"/>
		<path class="st0" d="M20.5,0h1.9l5,7.7l0,0V0h2.1v11.3h-1.9l-4.9-7.7l0,0v7.7h-2.1L20.5,0L20.5,0z"/>
		<path class="st0" d="M32,9.5V1.9L33.8,0h5.4L41,1.8v1.7h-2.2V2.6L38,1.8h-3.2L34,2.6v5.9l0.8,0.8H38l0.8-0.8V7.8H41v1.7l-1.8,1.8
			h-5.4L32,9.5L32,9.5z"/>
		<path class="st0" d="M43.1,0h2.2v4.7H50V0h2.2v11.3H50V6.6h-4.7v4.7h-2.2V0z"/>
		<path class="st0" d="M63.5,7.6v3.8h-2.2V8.1l-1-1.1H57v4.3h-2.2V0h7l1.7,1.8v3.4l-1.1,1.1L63.5,7.6L63.5,7.6z M57,5.2h3.8l0.5-0.6
			V2.4l-0.5-0.6H57V5.2L57,5.2z"/>
		<path class="st0" d="M66,9.5V1.9L67.8,0h5.7l1.8,1.9v7.6l-1.8,1.9h-5.7L66,9.5z M72.4,9.5l0.8-0.8v-6l-0.8-0.8H69l-0.8,0.8v5.9
			L69,9.4L72.4,9.5L72.4,9.5z"/>
		<path class="st0" d="M77.9,0h1.9l4.9,7.7l0,0V0h2.1v11.3h-1.9L80,3.7l0,0v7.7h-2.1V0L77.9,0z"/>
		<path class="st0" d="M89.6,0h2.2v11.3h-2.2V0z"/>
		<path class="st0" d="M94.1,9.6l5.7-7.7l0,0h-5.5V0h8.1v1.8l-5.7,7.7l0,0h5.7v1.9h-8.3L94.1,9.6L94.1,9.6z"/>
		<path class="st0" d="M104.5,0h8v1.9h-5.9v2.9h5.4v1.8h-5.4v2.9h5.9v1.9h-8V0L104.5,0z"/>
		<path class="st0" d="M114.8,0h7.1l1.9,1.9v7.4l-1.9,1.9h-7.1V0L114.8,0z M120.8,9.5l0.8-0.8v-6l-0.8-0.8h-3.9v7.6H120.8L120.8,9.5
			z"/>
		<path class="st0" d="M0,26.2v-1.6h2.1v1l0.5,0.5h3.3l0.5-0.5v-1.9L6,23.1H1.7L0,21.4v-3l1.7-1.8h5l1.7,1.8V20H6.3v-1l-0.5-0.5H2.7
			L2.2,19v1.7l0.5,0.5h4.2L8.6,23v3.2L6.9,28H1.7L0,26.2L0,26.2z"/>
		<path class="st0" d="M10.5,16.6h2.2V28h-2.2V16.6z"/>
		<path class="st0" d="M15.2,16.6h1.9l5,7.7l0,0v-7.7h2.1V28h-1.9l-4.9-7.7l0,0V28h-2.1L15.2,16.6L15.2,16.6z"/>
		<path class="st0" d="M26.2,26.1v-7.6l1.8-1.9h5.5l1.8,1.8v1.7h-2.2v-0.9l-0.8-0.8H29l-0.8,0.8v5.9l0.8,0.8h3.3l0.8-0.8v-1.8h-2.4
			v-1.9h4.5v4.5L33.5,28H28L26.2,26.1L26.2,26.1z"/>
		<path class="st0" d="M37.6,16.6h2.2V28h-2.2V16.6z"/>
		<path class="st0" d="M42.3,16.6h1.9l5,7.7l0,0v-7.7h2.1V28h-1.9l-5-7.7l0,0V28h-2.1V16.6L42.3,16.6z"/>
		<path class="st0" d="M53.6,26.1v-7.6l1.8-1.9H61l1.8,1.8v1.7h-2.2v-0.9l-0.8-0.8h-3.3l-0.8,0.8v5.9l0.8,0.8h3.3l0.8-0.8v-1.8h-2.4
			v-1.9h4.5v4.5L60.9,28h-5.5L53.6,26.1L53.6,26.1z"/>
		<path class="st0" d="M70.2,16.6h7.4v1.9h-5.4v2.9h5v1.8h-5v2.9h5.4V28h-7.4V16.6L70.2,16.6z"/>
		<path class="st0" d="M78.4,16.6h2.1l2.6,8.7l0,0l2.6-8.7h2.1L84,28h-1.9L78.4,16.6L78.4,16.6z"/>
		<path class="st0" d="M88.9,16.6h7.4v1.9h-5.4v2.9h5v1.8h-5v2.9h5.4V28h-7.4V16.6L88.9,16.6z"/>
		<path class="st0" d="M97.8,16.6h1.8l4.6,7.7l0,0v-7.7h1.9V28h-1.8l-4.6-7.7l0,0V28h-1.9V16.6z"/>
		<path class="st0" d="M110.5,18.5h-3.1v-1.9h8.2v1.9h-3.1V28h-2V18.5z"/>
		<path class="st0" d="M116.3,26.2v-1.6h2v1l0.5,0.5h3.1l0.5-0.5v-1.9l-0.5-0.5H118l-1.6-1.8v-3l1.6-1.8h4.7l1.6,1.8V20h-2v-1
			l-0.5-0.5h-2.9l-0.5,0.5v1.7l0.5,0.5h3.9l1.6,1.8v3.2l-1.6,1.8H118L116.3,26.2L116.3,26.2z"/>
	</g>
</g>
</svg>
